<mxfile host="Electron" modified="2023-10-23T00:39:26.691Z" agent="Mozilla/5.0 (Windows NT 10.0; Win64; x64) AppleWebKit/537.36 (KHTML, like Gecko) draw.io/22.0.2 Chrome/114.0.5735.289 Electron/25.8.4 Safari/537.36" etag="G_5eBJPpaG-iG3YsTxXV" version="22.0.2" type="device">
  <diagram id="kgpKYQtTHZ0yAKxKKP6v" name="Page-1">
    <mxGraphModel dx="2074" dy="844" grid="1" gridSize="10" guides="1" tooltips="1" connect="1" arrows="1" fold="1" page="1" pageScale="1" pageWidth="850" pageHeight="1100" math="0" shadow="0">
      <root>
        <mxCell id="0" />
        <mxCell id="1" parent="0" />
        <mxCell id="y3aga1Opj1fHKmlM16wV-1" value="" style="rounded=0;whiteSpace=wrap;html=1;" parent="1" vertex="1">
          <mxGeometry x="330" y="60" width="500" height="110" as="geometry" />
        </mxCell>
        <mxCell id="y3aga1Opj1fHKmlM16wV-2" value="&lt;b&gt;&lt;font style=&quot;font-size: 18px;&quot;&gt;Bot Frontend&lt;/font&gt;&lt;/b&gt;" style="text;html=1;align=center;verticalAlign=middle;resizable=0;points=[];autosize=1;strokeColor=none;fillColor=none;" parent="1" vertex="1">
          <mxGeometry x="510" y="60" width="140" height="40" as="geometry" />
        </mxCell>
        <mxCell id="y3aga1Opj1fHKmlM16wV-3" value="Botpress" style="rounded=1;whiteSpace=wrap;html=1;fillColor=#647687;fontColor=#ffffff;strokeColor=#314354;fontSize=16;fontStyle=1" parent="1" vertex="1">
          <mxGeometry x="360" y="110" width="440" height="40" as="geometry" />
        </mxCell>
        <mxCell id="y3aga1Opj1fHKmlM16wV-4" value="" style="rounded=0;whiteSpace=wrap;html=1;" parent="1" vertex="1">
          <mxGeometry x="330" y="230" width="500" height="270" as="geometry" />
        </mxCell>
        <mxCell id="y3aga1Opj1fHKmlM16wV-5" value="&lt;b&gt;&lt;font style=&quot;font-size: 18px;&quot;&gt;LLM Ocestration&lt;/font&gt;&lt;/b&gt;" style="text;html=1;align=center;verticalAlign=middle;resizable=0;points=[];autosize=1;strokeColor=none;fillColor=none;" parent="1" vertex="1">
          <mxGeometry x="495" y="230" width="170" height="40" as="geometry" />
        </mxCell>
        <mxCell id="y3aga1Opj1fHKmlM16wV-6" value="Flowise ai" style="rounded=1;whiteSpace=wrap;html=1;fillColor=#647687;fontColor=#ffffff;strokeColor=#314354;fontSize=16;fontStyle=1" parent="1" vertex="1">
          <mxGeometry x="360" y="280" width="440" height="40" as="geometry" />
        </mxCell>
        <mxCell id="y3aga1Opj1fHKmlM16wV-7" value="LangChain" style="rounded=1;whiteSpace=wrap;html=1;fillColor=#647687;fontColor=#ffffff;strokeColor=#314354;fontSize=16;fontStyle=1" parent="1" vertex="1">
          <mxGeometry x="360" y="330" width="440" height="40" as="geometry" />
        </mxCell>
        <mxCell id="y3aga1Opj1fHKmlM16wV-8" value="OpenAI" style="rounded=1;whiteSpace=wrap;html=1;fillColor=#647687;fontColor=#ffffff;strokeColor=#314354;fontSize=16;fontStyle=1" parent="1" vertex="1">
          <mxGeometry x="360" y="380" width="210" height="40" as="geometry" />
        </mxCell>
        <mxCell id="y3aga1Opj1fHKmlM16wV-9" value="Hugging Face" style="rounded=1;whiteSpace=wrap;html=1;fillColor=#647687;fontColor=#ffffff;strokeColor=#314354;fontSize=16;fontStyle=1" parent="1" vertex="1">
          <mxGeometry x="590" y="380" width="210" height="40" as="geometry" />
        </mxCell>
        <mxCell id="y3aga1Opj1fHKmlM16wV-10" value="Github" style="rounded=1;whiteSpace=wrap;html=1;fillColor=#647687;fontColor=#ffffff;strokeColor=#314354;fontSize=16;fontStyle=1" parent="1" vertex="1">
          <mxGeometry x="590" y="430" width="210" height="40" as="geometry" />
        </mxCell>
        <mxCell id="y3aga1Opj1fHKmlM16wV-11" value="SERP" style="rounded=1;whiteSpace=wrap;html=1;fillColor=#647687;fontColor=#ffffff;strokeColor=#314354;fontSize=16;fontStyle=1" parent="1" vertex="1">
          <mxGeometry x="360" y="430" width="210" height="40" as="geometry" />
        </mxCell>
        <mxCell id="y3aga1Opj1fHKmlM16wV-12" style="edgeStyle=orthogonalEdgeStyle;rounded=0;orthogonalLoop=1;jettySize=auto;html=1;exitX=0.5;exitY=1;exitDx=0;exitDy=0;" parent="1" source="y3aga1Opj1fHKmlM16wV-4" target="y3aga1Opj1fHKmlM16wV-4" edge="1">
          <mxGeometry relative="1" as="geometry" />
        </mxCell>
        <mxCell id="y3aga1Opj1fHKmlM16wV-13" value="" style="rounded=0;whiteSpace=wrap;html=1;" parent="1" vertex="1">
          <mxGeometry x="30" y="230" width="270" height="210" as="geometry" />
        </mxCell>
        <mxCell id="y3aga1Opj1fHKmlM16wV-14" value="&lt;b&gt;&lt;font style=&quot;font-size: 18px;&quot;&gt;Legacy Data Layer&lt;/font&gt;&lt;/b&gt;" style="text;html=1;align=center;verticalAlign=middle;resizable=0;points=[];autosize=1;strokeColor=none;fillColor=none;" parent="1" vertex="1">
          <mxGeometry x="80" y="230" width="180" height="40" as="geometry" />
        </mxCell>
        <mxCell id="itp6Yl1dgcfYITnPnVV_-1" value="MariaDB" style="rounded=1;whiteSpace=wrap;html=1;fillColor=#647687;fontColor=#ffffff;strokeColor=#314354;fontSize=16;fontStyle=1" vertex="1" parent="1">
          <mxGeometry x="60" y="330" width="210" height="40" as="geometry" />
        </mxCell>
        <mxCell id="itp6Yl1dgcfYITnPnVV_-2" value="NoSQLDB" style="rounded=1;whiteSpace=wrap;html=1;fillColor=#647687;fontColor=#ffffff;strokeColor=#314354;fontSize=16;fontStyle=1" vertex="1" parent="1">
          <mxGeometry x="60" y="380" width="210" height="40" as="geometry" />
        </mxCell>
        <mxCell id="itp6Yl1dgcfYITnPnVV_-3" value="Oracle" style="rounded=1;whiteSpace=wrap;html=1;fillColor=#647687;fontColor=#ffffff;strokeColor=#314354;fontSize=16;fontStyle=1" vertex="1" parent="1">
          <mxGeometry x="60" y="280" width="210" height="40" as="geometry" />
        </mxCell>
        <mxCell id="itp6Yl1dgcfYITnPnVV_-4" value="" style="rounded=0;whiteSpace=wrap;html=1;" vertex="1" parent="1">
          <mxGeometry x="860" y="230" width="270" height="210" as="geometry" />
        </mxCell>
        <mxCell id="itp6Yl1dgcfYITnPnVV_-5" value="&lt;b&gt;&lt;font style=&quot;font-size: 18px;&quot;&gt;Vector Data Layer&lt;/font&gt;&lt;/b&gt;" style="text;html=1;align=center;verticalAlign=middle;resizable=0;points=[];autosize=1;strokeColor=none;fillColor=none;" vertex="1" parent="1">
          <mxGeometry x="910" y="230" width="180" height="40" as="geometry" />
        </mxCell>
        <mxCell id="itp6Yl1dgcfYITnPnVV_-6" value="Fiass" style="rounded=1;whiteSpace=wrap;html=1;fillColor=#647687;fontColor=#ffffff;strokeColor=#314354;fontSize=16;fontStyle=1" vertex="1" parent="1">
          <mxGeometry x="890" y="330" width="210" height="40" as="geometry" />
        </mxCell>
        <mxCell id="itp6Yl1dgcfYITnPnVV_-7" value="Pinecone" style="rounded=1;whiteSpace=wrap;html=1;fillColor=#647687;fontColor=#ffffff;strokeColor=#314354;fontSize=16;fontStyle=1" vertex="1" parent="1">
          <mxGeometry x="890" y="380" width="210" height="40" as="geometry" />
        </mxCell>
        <mxCell id="itp6Yl1dgcfYITnPnVV_-8" value="Chroma" style="rounded=1;whiteSpace=wrap;html=1;fillColor=#647687;fontColor=#ffffff;strokeColor=#314354;fontSize=16;fontStyle=1" vertex="1" parent="1">
          <mxGeometry x="890" y="280" width="210" height="40" as="geometry" />
        </mxCell>
        <mxCell id="itp6Yl1dgcfYITnPnVV_-11" value="" style="shape=flexArrow;endArrow=classic;html=1;rounded=0;fillColor=#dae8fc;strokeColor=#6c8ebf;" edge="1" parent="1">
          <mxGeometry width="50" height="50" relative="1" as="geometry">
            <mxPoint x="280" y="320" as="sourcePoint" />
            <mxPoint x="349.5" y="320" as="targetPoint" />
          </mxGeometry>
        </mxCell>
        <mxCell id="itp6Yl1dgcfYITnPnVV_-12" value="" style="shape=flexArrow;endArrow=classic;html=1;rounded=0;fillColor=#dae8fc;strokeColor=#6c8ebf;" edge="1" parent="1">
          <mxGeometry width="50" height="50" relative="1" as="geometry">
            <mxPoint x="810" y="320" as="sourcePoint" />
            <mxPoint x="879.5" y="320" as="targetPoint" />
          </mxGeometry>
        </mxCell>
        <mxCell id="itp6Yl1dgcfYITnPnVV_-15" value="" style="shape=flexArrow;endArrow=classic;html=1;rounded=0;fillColor=#dae8fc;strokeColor=#6c8ebf;" edge="1" parent="1">
          <mxGeometry width="50" height="50" relative="1" as="geometry">
            <mxPoint x="579.5" y="200" as="sourcePoint" />
            <mxPoint x="580" y="150" as="targetPoint" />
          </mxGeometry>
        </mxCell>
        <mxCell id="itp6Yl1dgcfYITnPnVV_-16" value="" style="shape=flexArrow;endArrow=classic;html=1;rounded=0;fillColor=#dae8fc;strokeColor=#6c8ebf;" edge="1" parent="1">
          <mxGeometry width="50" height="50" relative="1" as="geometry">
            <mxPoint x="579.5" y="170" as="sourcePoint" />
            <mxPoint x="579.5" y="231.08819277108432" as="targetPoint" />
          </mxGeometry>
        </mxCell>
        <mxCell id="itp6Yl1dgcfYITnPnVV_-17" value="" style="shape=flexArrow;endArrow=classic;html=1;rounded=0;fillColor=#dae8fc;strokeColor=#6c8ebf;" edge="1" parent="1">
          <mxGeometry width="50" height="50" relative="1" as="geometry">
            <mxPoint x="880" y="348.96" as="sourcePoint" />
            <mxPoint x="810" y="351.0481927710843" as="targetPoint" />
          </mxGeometry>
        </mxCell>
        <mxCell id="itp6Yl1dgcfYITnPnVV_-18" value="" style="shape=flexArrow;endArrow=classic;html=1;rounded=0;fillColor=#dae8fc;strokeColor=#6c8ebf;" edge="1" parent="1">
          <mxGeometry width="50" height="50" relative="1" as="geometry">
            <mxPoint x="350" y="348.96" as="sourcePoint" />
            <mxPoint x="280" y="351.0481927710843" as="targetPoint" />
          </mxGeometry>
        </mxCell>
        <mxCell id="itp6Yl1dgcfYITnPnVV_-19" value="" style="shape=image;verticalLabelPosition=bottom;labelBackgroundColor=default;verticalAlign=top;aspect=fixed;imageAspect=0;image=https://www.trychroma.com/chroma-logo.png;" vertex="1" parent="1">
          <mxGeometry x="900" y="285" width="45.11" height="30" as="geometry" />
        </mxCell>
        <mxCell id="itp6Yl1dgcfYITnPnVV_-20" value="" style="shape=image;verticalLabelPosition=bottom;labelBackgroundColor=default;verticalAlign=top;aspect=fixed;imageAspect=0;image=https://www.mlq.ai/content/images/2023/06/pinecone-icon-logo-AF8B5B7F96-seeklogo.com.png;" vertex="1" parent="1">
          <mxGeometry x="904.75" y="380" width="35.6" height="40" as="geometry" />
        </mxCell>
        <mxCell id="itp6Yl1dgcfYITnPnVV_-29" value="" style="shape=image;verticalLabelPosition=bottom;labelBackgroundColor=default;verticalAlign=top;aspect=fixed;imageAspect=0;image=https://1000logos.net/wp-content/uploads/2021/05/GitHub-logo.png;" vertex="1" parent="1">
          <mxGeometry x="590" y="430" width="71.11" height="40" as="geometry" />
        </mxCell>
        <mxCell id="itp6Yl1dgcfYITnPnVV_-32" value="" style="shape=image;verticalLabelPosition=bottom;labelBackgroundColor=default;verticalAlign=top;aspect=fixed;imageAspect=0;image=https://assets.stickpng.com/thumbs/6308b81d61b3e2a522f01466.png;" vertex="1" parent="1">
          <mxGeometry x="590" y="375" width="50" height="50" as="geometry" />
        </mxCell>
        <mxCell id="itp6Yl1dgcfYITnPnVV_-33" value="" style="shape=image;verticalLabelPosition=bottom;labelBackgroundColor=default;verticalAlign=top;aspect=fixed;imageAspect=0;image=https://i.pinimg.com/736x/3b/41/66/3b416681d2c0f4712b67393eedffdd8c.jpg;" vertex="1" parent="1">
          <mxGeometry x="370" y="430" width="53.33" height="40" as="geometry" />
        </mxCell>
        <mxCell id="itp6Yl1dgcfYITnPnVV_-34" value="" style="shape=image;verticalLabelPosition=bottom;labelBackgroundColor=default;verticalAlign=top;aspect=fixed;imageAspect=0;image=https://static.cdnlogo.com/logos/o/29/OpenAI-Logo_800x800.png;" vertex="1" parent="1">
          <mxGeometry x="370" y="375" width="50" height="50" as="geometry" />
        </mxCell>
      </root>
    </mxGraphModel>
  </diagram>
</mxfile>
